<?xml version="1.0" standalone="no"?>
<!DOCTYPE svg PUBLIC "-//W3C//DTD SVG 20010904//EN"
 "http://www.w3.org/TR/2001/REC-SVG-20010904/DTD/svg10.dtd">
<svg version="1.0" xmlns="http://www.w3.org/2000/svg"
 width="1776.000000pt" height="1776.000000pt" viewBox="0 0 1776.000000 1776.000000"
 preserveAspectRatio="xMidYMid meet">
<metadata>
Created by potrace 1.14, written by Peter Selinger 2001-2017
</metadata>
<g transform="translate(0.000000,1776.000000) scale(0.100000,-0.100000)"
fill="#000000" stroke="none">
<path d="M3798 12466 c-7 -7 -60 -64 -118 -126 -58 -62 -125 -135 -150 -161
-25 -26 -75 -81 -113 -122 -37 -41 -88 -97 -115 -125 -26 -27 -92 -98 -147
-157 -55 -60 -113 -123 -130 -140 -16 -18 -62 -68 -102 -111 -39 -44 -95 -104
-125 -136 -29 -31 -93 -100 -143 -153 -49 -54 -106 -114 -125 -135 -52 -56
-231 -249 -274 -295 -186 -201 -258 -484 -191 -751 9 -38 22 -75 27 -81 6 -7
8 -13 5 -13 -6 0 51 -112 81 -159 27 -42 41 -57 187 -215 166 -178 232 -246
241 -246 5 0 4 4 -1 8 -34 24 -147 212 -128 212 3 0 1 6 -4 13 -18 22 -36 123
-36 197 1 184 68 333 223 491 19 20 55 59 79 85 41 46 211 231 274 299 16 16
64 68 107 115 43 47 91 99 107 115 15 17 75 82 133 145 58 63 119 129 135 146
17 18 67 72 111 121 45 48 109 117 143 153 l61 65 63 -66 c54 -57 140 -151
302 -327 22 -24 58 -62 80 -86 35 -37 182 -196 260 -281 76 -84 195 -212 230
-250 22 -23 81 -86 130 -140 50 -54 102 -111 116 -126 15 -15 40 -45 55 -66
16 -21 31 -40 34 -43 27 -23 84 -174 95 -250 14 -88 6 -221 -16 -262 -5 -10
-7 -18 -4 -18 3 0 -1 -13 -10 -30 -9 -16 -13 -30 -11 -30 3 0 -8 -23 -24 -50
-17 -28 -30 -55 -30 -60 0 -4 -3 -10 -7 -12 -5 -1 -28 -28 -52 -58 -54 -68 96
86 344 354 80 86 170 250 185 338 1 4 7 29 14 56 16 57 18 217 5 287 -5 28
-11 59 -13 70 -21 107 -115 267 -227 386 -38 41 -219 235 -263 283 -15 17 -72
78 -126 136 -54 58 -111 119 -126 136 -58 63 -230 249 -259 280 -26 27 -69 74
-270 290 -16 17 -66 71 -110 119 -44 48 -100 108 -124 133 -105 114 -130 141
-184 199 -46 51 -59 60 -69 49z"/>
<path d="M9719 10564 c-37 -8 -91 -25 -120 -38 -68 -30 -169 -104 -202 -148
-35 -47 -76 -124 -81 -153 -3 -13 -8 -29 -11 -35 -12 -20 -11 -154 1 -210 15
-62 42 -128 61 -148 7 -7 13 -17 13 -22 0 -10 87 -96 127 -126 71 -53 137 -95
247 -158 129 -74 234 -144 279 -185 58 -53 89 -149 73 -227 -10 -48 -63 -111
-121 -141 -122 -66 -358 -42 -582 58 -24 10 -48 19 -53 19 -9 0 -92 -163 -113
-223 -6 -15 6 -24 66 -51 73 -33 185 -73 228 -81 13 -3 35 -7 49 -10 76 -17
242 -23 335 -13 93 10 253 69 302 112 7 6 32 27 56 46 55 44 124 136 142 190
1 3 7 17 13 32 28 69 29 202 2 292 -35 112 -131 230 -245 302 -16 10 -32 21
-35 24 -16 17 -222 142 -252 153 -10 3 -18 11 -18 17 0 5 -9 10 -20 10 -11 0
-20 5 -20 10 0 6 -5 10 -10 10 -6 0 -16 5 -23 10 -7 6 -41 32 -77 58 -104 75
-138 166 -101 264 13 36 73 79 129 94 55 14 229 11 293 -6 84 -22 171 -54 212
-77 6 -3 45 70 52 97 2 7 14 36 42 99 13 30 22 55 21 56 -24 19 -213 81 -278
91 -19 3 -44 8 -55 11 -42 12 -261 10 -326 -3z"/>
<path d="M11577 10533 c-3 -10 -35 -90 -72 -178 -36 -88 -67 -165 -69 -172 -1
-7 -5 -16 -9 -19 -4 -4 -7 -16 -7 -26 0 -10 -4 -18 -8 -18 -5 0 -9 -6 -9 -12
-1 -7 -24 -69 -52 -138 -59 -141 -63 -153 -82 -195 -7 -16 -13 -32 -13 -35 -2
-6 -45 -116 -62 -155 -7 -16 -29 -70 -49 -120 -20 -49 -43 -105 -52 -124 -8
-18 -16 -39 -17 -45 -1 -6 -10 -29 -20 -51 -10 -22 -24 -57 -32 -78 -7 -20
-20 -52 -28 -70 -8 -17 -26 -63 -41 -101 -15 -38 -31 -77 -35 -85 -21 -41 -82
-203 -78 -207 4 -3 87 -5 128 -3 8 1 20 0 25 -1 6 -1 42 -2 81 -1 l70 1 48
123 c26 67 54 136 61 152 8 17 29 68 48 115 l33 85 288 0 c182 0 290 -3 296
-10 4 -5 15 -30 23 -55 29 -84 147 -403 150 -406 1 -2 43 -3 92 -3 50 -1 125
-1 168 -2 49 0 77 4 77 11 0 9 -46 139 -70 195 -4 11 -27 74 -51 140 -23 66
-46 124 -51 130 -4 5 -8 17 -8 27 0 10 -4 26 -10 36 -5 9 -28 69 -51 132 -23
63 -45 124 -49 135 -4 11 -13 34 -19 50 -6 17 -16 44 -22 60 -7 17 -13 35 -15
40 -1 6 -14 42 -29 80 -44 116 -126 339 -129 350 -2 6 -7 21 -13 35 -18 44
-55 145 -57 155 -1 6 -10 26 -18 46 -9 20 -19 50 -23 67 -3 18 -11 34 -16 37
-5 4 -9 12 -9 19 0 8 -8 31 -17 52 -9 22 -16 42 -15 47 1 4 -38 7 -87 7 -76 0
-89 -3 -94 -17z m74 -630 c6 -16 27 -71 45 -123 19 -52 38 -104 43 -115 23
-48 80 -218 77 -224 -3 -4 -87 -6 -188 -6 -155 1 -183 3 -180 15 2 8 29 80 60
160 31 80 57 147 58 150 0 3 10 25 21 50 11 25 25 62 32 83 7 20 15 37 17 37
2 0 9 -12 15 -27z"/>
<path d="M12910 10542 c-13 -2 -15 -81 -14 -640 0 -350 4 -670 8 -710 12 -124
74 -251 164 -339 73 -72 217 -146 327 -168 11 -2 34 -7 50 -10 45 -10 252 -12
318 -3 284 39 498 234 563 513 8 33 16 1307 9 1340 -4 20 -11 21 -145 20 -77
-1 -143 -5 -147 -8 -3 -4 -7 -303 -8 -665 -1 -656 -1 -657 -24 -714 -23 -58
-103 -151 -151 -175 -29 -15 -78 -34 -100 -40 -30 -8 -186 -9 -235 -1 -98 15
-235 87 -235 124 0 8 -4 14 -9 14 -5 0 -19 26 -32 58 l-24 57 0 675 0 675
-150 0 c-83 0 -157 -1 -165 -3z"/>
<path d="M15069 10545 c-5 -1 -3 -1837 2 -1840 5 -4 116 -5 224 -4 11 0 162 0
335 -1 173 0 336 0 362 0 l48 0 -1 73 c-1 39 0 74 1 77 5 15 6 51 0 55 -3 2
-5 17 -4 33 l2 30 -322 -1 -321 0 -5 789 -5 788 -157 1 c-87 0 -159 0 -159 0z"/>
<path d="M16319 10545 c-7 0 -1 -259 6 -264 6 -4 130 -7 277 -7 173 1 269 -2
271 -9 1 -5 2 -360 2 -787 l-1 -777 154 -3 c158 -3 182 2 169 37 -4 8 -2 17 2
20 5 3 6 20 1 38 -4 18 -4 42 0 52 3 11 5 31 3 45 -6 49 -5 138 1 148 3 6 3
13 -2 15 -4 3 -5 37 -2 76 3 39 2 71 -1 71 -3 0 -3 20 1 45 4 25 5 47 2 49 -7
8 -8 136 0 136 4 0 3 12 -1 28 -5 15 -5 37 0 49 4 12 5 24 1 27 -4 2 -5 36 -2
75 3 39 2 71 -1 71 -3 0 -3 20 1 45 4 25 5 47 2 49 -7 8 -8 136 0 136 4 0 3
12 -1 28 -5 15 -5 37 0 49 4 12 4 25 0 27 -5 3 -5 23 -2 43 4 21 4 51 1 67 -3
16 -3 57 0 90 l5 61 278 0 278 0 -3 135 -3 135 -717 0 c-395 0 -718 0 -719 0z"/>
<path d="M3674 10344 c-66 -70 -132 -141 -149 -159 -62 -68 -222 -240 -260
-281 -48 -51 -192 -207 -229 -248 -101 -113 -125 -283 -58 -418 17 -35 47 -81
68 -103 49 -54 226 -243 294 -315 30 -32 96 -102 146 -156 108 -117 186 -199
257 -272 l52 -53 55 59 c75 80 255 272 310 331 25 26 77 82 115 123 39 41 118
126 177 189 59 63 118 130 131 150 54 80 76 204 51 299 -22 86 -51 130 -152
238 -30 31 -88 95 -130 140 -42 46 -99 107 -127 136 -27 29 -95 102 -150 161
-55 60 -128 138 -161 174 -34 36 -75 81 -92 98 l-30 33 -118 -126z"/>
<path d="M2610 9320 c0 -5 5 -10 10 -10 6 0 10 5 10 10 0 6 -4 10 -10 10 -5 0
-10 -4 -10 -10z"/>
<path d="M1385 8689 c-97 -9 -122 -14 -185 -35 -108 -35 -235 -113 -320 -196
-112 -109 -166 -213 -245 -473 -20 -66 -53 -174 -74 -240 -57 -182 -75 -240
-76 -245 -1 -7 -35 -111 -42 -130 -3 -8 -7 -21 -9 -28 -4 -21 -35 -125 -46
-154 -6 -15 -10 -30 -9 -32 0 -3 -7 -25 -15 -48 -9 -24 -17 -47 -18 -53 -2 -5
-6 -17 -9 -25 -4 -8 -8 -26 -11 -40 -3 -14 -19 -65 -36 -115 -17 -49 -30 -90
-29 -90 1 0 -9 -36 -23 -80 -14 -44 -42 -134 -63 -200 -20 -66 -57 -185 -82
-265 -24 -80 -55 -177 -68 -217 -24 -74 -21 -89 15 -91 8 0 53 -10 100 -21 47
-12 94 -23 105 -25 103 -21 184 -39 205 -46 14 -5 39 -11 55 -14 17 -3 48 -10
70 -15 22 -6 54 -13 70 -16 17 -4 75 -17 130 -30 55 -13 111 -26 125 -29 23
-5 112 -25 205 -47 22 -5 54 -12 70 -15 17 -3 66 -14 110 -25 44 -11 91 -23
105 -25 14 -3 43 -10 65 -15 22 -5 47 -11 56 -13 9 -3 61 -14 115 -26 55 -12
126 -29 159 -36 33 -8 71 -17 85 -20 14 -3 41 -9 60 -14 19 -5 47 -12 63 -15
27 -5 52 -10 97 -20 14 -4 36 -8 50 -11 14 -3 34 -8 45 -11 78 -26 269 -36
358 -20 69 13 131 30 157 43 14 6 43 20 65 30 176 76 344 271 413 479 27 81
64 198 66 210 1 6 14 49 30 97 15 48 29 95 31 105 2 10 8 30 14 46 20 52 3 27
-34 -50 -87 -181 -238 -302 -430 -346 -87 -20 -234 -17 -325 8 -36 9 -74 19
-85 21 -41 8 -62 13 -130 29 -38 9 -79 18 -90 20 -11 2 -49 10 -85 19 -311 72
-609 139 -670 152 -14 3 -61 14 -105 24 -44 11 -91 22 -105 25 -37 7 -92 19
-225 50 -66 15 -124 28 -130 30 -5 1 -22 5 -36 9 l-27 8 20 61 c21 65 25 77
27 90 0 4 7 23 15 42 9 20 15 38 15 40 0 3 18 64 41 136 23 72 43 139 45 148
2 9 10 34 18 56 8 22 29 87 47 145 18 58 36 116 40 130 25 76 93 296 93 300
-1 3 9 34 22 70 12 36 41 126 64 200 124 396 136 423 241 530 47 48 131 110
149 110 6 0 11 4 11 9 0 5 15 13 33 16 17 4 37 11 42 15 37 27 234 46 308 30
20 -4 37 -5 37 -1 0 6 -291 77 -360 88 -19 3 -37 8 -40 12 -3 3 -14 7 -25 8
-11 1 -31 4 -45 7 -111 20 -171 24 -255 15z"/>
<path d="M6108 8695 c-2 -1 -32 -5 -68 -8 -36 -3 -105 -15 -155 -27 -49 -12
-97 -23 -105 -25 -8 -2 -46 -11 -85 -20 -38 -9 -81 -19 -95 -21 -14 -3 -32 -7
-40 -11 -8 -3 -28 -7 -45 -9 -16 -3 -33 -8 -38 -13 -4 -4 16 -4 45 0 52 8 158
6 208 -5 14 -3 36 -8 48 -11 13 -2 63 -23 110 -46 67 -32 102 -58 161 -118 92
-92 134 -169 185 -336 21 -66 41 -131 46 -145 9 -27 73 -232 75 -240 1 -8 65
-212 75 -240 5 -14 27 -86 50 -160 23 -74 45 -146 50 -160 5 -14 27 -86 50
-160 23 -74 44 -144 48 -155 3 -11 7 -22 7 -25 1 -3 4 -12 8 -20 3 -8 20 -62
37 -120 18 -58 38 -123 45 -145 15 -45 12 -55 -15 -55 -10 0 -47 -7 -81 -16
-35 -9 -72 -18 -84 -19 -11 -2 -69 -15 -130 -30 -60 -14 -120 -27 -132 -30
-13 -2 -31 -6 -41 -9 -9 -3 -28 -7 -42 -10 -14 -3 -34 -7 -45 -10 -11 -2 -83
-19 -160 -36 -77 -18 -147 -34 -155 -36 -22 -5 -95 -23 -97 -24 -2 0 -4 0 -5
-1 -2 -1 -14 -3 -28 -5 -14 -1 -52 -10 -85 -18 -33 -8 -71 -17 -85 -20 -14 -3
-34 -7 -45 -10 -91 -21 -154 -36 -175 -39 -14 -3 -45 -10 -70 -17 -25 -7 -56
-14 -70 -17 -13 -2 -61 -13 -106 -23 -75 -18 -209 -37 -226 -32 -4 1 -28 4
-54 7 -160 16 -322 110 -439 255 -22 27 -73 124 -85 162 -6 21 -16 40 -21 43
-5 4 -5 -3 0 -17 6 -13 26 -77 46 -143 20 -66 39 -127 42 -135 3 -8 7 -19 9
-25 5 -22 53 -181 59 -200 66 -183 201 -349 360 -442 57 -33 170 -80 212 -88
15 -2 39 -8 53 -11 41 -10 229 -12 268 -3 20 4 48 10 62 12 39 8 293 65 430
99 69 16 134 31 146 32 11 2 25 5 30 8 5 4 27 9 49 12 22 4 48 9 57 12 9 3 25
6 35 8 10 2 97 22 193 44 96 23 186 43 200 46 14 2 66 14 115 26 50 12 95 23
100 24 15 4 127 28 145 31 8 2 15 4 15 5 0 1 9 3 20 5 11 2 31 6 45 10 14 3
36 8 50 11 14 3 41 9 60 14 19 5 46 11 60 14 14 3 66 14 115 26 50 11 101 23
115 26 14 3 33 7 42 10 9 3 25 7 35 9 10 2 41 9 68 15 28 6 58 13 69 16 10 2
21 6 23 8 6 6 -27 116 -39 132 -4 6 -5 14 -2 17 3 3 2 12 -2 19 -5 7 -9 15 -9
18 -1 3 -4 14 -7 25 -39 122 -90 288 -92 298 -2 7 -5 19 -8 27 -8 20 -78 247
-118 380 -18 58 -36 114 -40 125 -4 11 -18 54 -30 95 -21 70 -67 220 -93 300
-6 19 -12 37 -12 40 -1 3 -12 39 -25 80 -13 41 -24 80 -26 85 -3 16 -54 176
-69 220 -8 22 -16 49 -18 60 -2 11 -9 33 -15 48 -7 16 -12 32 -12 37 0 15 -78
243 -97 285 -50 109 -165 245 -266 314 -113 77 -246 127 -367 137 -30 2 -69 6
-87 8 -18 2 -33 2 -35 1z"/>
<path d="M2120 8562 c0 -15 28 -23 36 -9 4 7 4 9 -1 5 -4 -4 -14 -3 -22 3 -8
7 -13 8 -13 1z"/>
<path d="M5426 8551 c-4 -5 3 -7 14 -4 23 6 26 13 6 13 -8 0 -17 -4 -20 -9z"/>
<path d="M2398 8285 c-2 -2 -21 -5 -43 -7 -87 -10 -214 -100 -264 -188 -13
-22 -88 -242 -96 -281 -2 -9 -15 -54 -30 -100 -15 -46 -53 -169 -85 -274 -32
-104 -77 -250 -100 -323 -23 -74 -39 -140 -36 -147 2 -7 22 -15 43 -19 47 -7
61 -10 148 -31 39 -9 77 -18 85 -20 8 -2 58 -13 110 -26 52 -13 97 -23 100
-24 3 -1 19 -4 35 -8 17 -4 42 -9 58 -12 15 -3 39 -7 55 -10 15 -3 38 -10 52
-15 14 -5 52 -14 85 -21 33 -7 65 -14 70 -15 6 -1 53 -12 105 -24 158 -37 206
-42 276 -29 107 20 203 88 258 182 23 38 107 282 120 347 2 8 6 23 10 32 4 9
9 22 10 30 1 7 9 33 16 58 17 57 16 53 23 70 3 8 15 49 27 90 35 119 80 270
100 330 26 79 52 172 48 175 -2 1 -84 21 -183 44 -99 24 -189 45 -200 48 -11
2 -29 6 -40 8 -11 2 -69 15 -130 30 -60 15 -117 28 -125 30 -8 2 -73 17 -145
35 -71 17 -142 33 -158 35 -15 2 -31 7 -36 9 -15 10 -156 27 -163 21z"/>
<path d="M5105 8282 c-16 -2 -55 -10 -85 -18 -30 -9 -64 -17 -75 -18 -11 -2
-78 -18 -150 -35 -71 -18 -170 -41 -220 -52 -49 -12 -99 -23 -110 -25 -11 -3
-29 -7 -40 -9 -11 -3 -29 -7 -40 -10 -44 -10 -281 -66 -300 -69 -11 -2 -28 -7
-37 -10 -10 -3 -24 -8 -32 -10 -12 -4 -11 -15 6 -68 11 -35 24 -76 28 -93 5
-16 17 -59 28 -95 11 -36 45 -148 76 -250 32 -102 71 -230 88 -284 16 -54 31
-104 33 -110 1 -6 4 -18 8 -26 3 -8 17 -53 32 -100 30 -94 63 -148 122 -201
88 -80 221 -112 343 -85 14 3 52 12 85 19 106 25 299 69 315 72 8 2 76 17 150
35 74 18 142 33 150 35 34 8 206 47 220 51 8 2 43 10 78 18 35 7 65 16 67 18
3 2 -7 40 -21 84 -14 43 -28 90 -30 103 -3 14 -8 29 -12 35 -3 6 -7 16 -8 22
-1 6 -17 58 -35 115 -18 57 -33 106 -34 109 -1 3 -8 30 -18 60 -9 30 -17 58
-17 62 0 4 -7 23 -16 43 -8 19 -14 36 -13 37 1 2 -15 57 -36 123 -20 66 -48
156 -62 200 -37 122 -67 175 -130 232 -75 69 -201 108 -308 95z"/>
<path d="M9810 7789 c-90 -10 -113 -15 -170 -37 -8 -3 -17 -6 -20 -6 -3 -1
-32 -15 -64 -31 -91 -46 -214 -171 -259 -265 -33 -69 -40 -86 -47 -115 -1 -5
-6 -18 -12 -29 -17 -32 -19 -215 -3 -286 32 -140 105 -259 223 -362 42 -37
173 -106 213 -113 18 -3 35 -8 38 -10 26 -16 218 -26 261 -13 14 4 39 9 55 12
17 3 46 9 65 15 19 6 38 10 41 8 4 -1 15 6 25 15 11 9 31 19 46 23 14 4 33 14
42 24 13 15 12 21 -15 64 -31 51 -40 55 -59 32 -7 -8 -21 -15 -31 -15 -10 0
-20 -4 -23 -9 -18 -29 -244 -55 -326 -38 -66 15 -150 49 -182 75 -97 78 -149
145 -182 235 -47 125 -38 312 20 434 37 80 130 173 210 212 64 31 78 36 134
45 28 5 82 9 90 7 3 -1 25 -4 50 -6 39 -3 78 -10 115 -19 6 -2 19 -7 30 -11
108 -44 114 -45 119 -27 3 9 5 21 5 26 0 5 3 12 9 15 5 3 12 18 16 34 6 25 3
29 -46 51 -73 34 -152 56 -223 62 -33 3 -64 6 -70 8 -5 1 -39 -1 -75 -5z"/>
<path d="M11105 7783 c-85 -17 -199 -64 -250 -103 -69 -52 -186 -194 -186
-227 -1 -4 -5 -13 -9 -18 -5 -6 -18 -44 -29 -85 -29 -103 -24 -303 10 -420 15
-51 71 -170 81 -170 4 0 8 -6 8 -13 0 -19 98 -111 155 -145 57 -34 161 -72
219 -79 71 -8 176 -8 176 0 0 5 4 5 10 2 16 -10 128 23 192 55 74 38 77 40
158 121 116 116 170 259 165 441 -4 128 -10 176 -36 258 -38 119 -103 213
-194 280 -53 38 -161 88 -211 96 -40 7 -234 12 -259 7z m268 -146 c113 -51
208 -178 239 -320 13 -58 16 -253 5 -307 -17 -78 -53 -171 -69 -178 -5 -2 -8
-9 -8 -15 -1 -29 -143 -153 -162 -141 -4 3 -8 0 -8 -7 0 -7 -3 -9 -7 -6 -3 4
-12 2 -19 -3 -6 -6 -28 -12 -46 -14 -19 -2 -39 -5 -44 -7 -32 -16 -160 8 -229
43 -152 76 -237 251 -236 482 1 209 88 385 225 457 70 37 117 47 211 44 73 -1
101 -7 148 -28z"/>
<path d="M15869 7780 c-26 -4 -57 -14 -70 -21 -13 -7 -24 -10 -24 -8 -1 9 -92
-37 -145 -72 -117 -78 -229 -233 -257 -354 -2 -11 -7 -31 -10 -45 -9 -34 -9
-217 0 -258 10 -45 46 -140 70 -182 40 -72 142 -182 200 -216 40 -24 150 -76
171 -81 132 -32 285 -35 391 -9 11 3 39 10 61 16 61 14 164 61 165 74 0 6 1
108 2 228 l2 216 -82 1 c-60 1 -83 -3 -84 -12 -1 -6 -2 -93 -3 -192 l-1 -180
-65 -17 c-74 -20 -220 -29 -265 -16 -16 5 -41 11 -55 14 -152 31 -306 203
-335 374 -9 50 -8 182 0 220 11 44 13 55 15 55 1 0 3 7 5 16 9 46 66 139 115
189 38 39 180 130 180 116 0 -3 12 -1 28 5 54 21 109 24 215 14 57 -6 197 -43
215 -58 7 -5 14 -8 17 -6 8 8 45 101 45 113 0 10 -65 40 -115 53 -118 31 -285
41 -386 23z"/>
<path d="M12268 7756 c-2 -6 -4 -281 -3 -611 l0 -600 308 -3 c242 -2 307 0
308 10 5 64 5 95 -2 103 -4 6 -92 10 -228 9 l-221 -1 0 552 0 551 -80 0 c-48
1 -80 -3 -82 -10z"/>
<path d="M13282 7756 c-5 -6 -8 -281 -8 -611 l1 -600 308 -3 c302 -2 307 -2
308 18 2 25 2 43 0 78 l-1 27 -219 0 c-121 0 -223 3 -227 7 -9 10 -9 92 0 107
4 6 4 11 -1 11 -10 0 -9 142 1 158 4 7 3 12 -1 12 -10 0 -9 53 2 69 3 6 2 11
-2 11 -10 0 -9 53 2 69 3 6 2 11 -2 11 -10 0 -9 53 2 69 3 6 2 11 -2 11 -10 0
-9 53 2 69 3 6 2 11 -2 11 -10 0 -9 53 2 69 3 6 2 11 -2 11 -10 0 -9 53 2 69
3 6 2 11 -2 11 -5 0 -8 15 -6 33 4 40 4 121 0 165 -2 18 0 35 5 38 4 3 5 13 0
22 -4 9 -7 28 -6 42 1 25 0 26 -72 27 -44 0 -77 -4 -82 -11z"/>
<path d="M14289 7760 c-1 -3 -2 -278 -3 -612 l-2 -608 346 0 345 0 2 59 c2 49
0 59 -15 63 -9 2 -128 3 -264 3 l-248 -1 0 36 c-1 53 -1 276 -1 348 l1 62 185
0 186 0 -2 63 -2 62 -185 0 -184 0 0 190 c1 105 1 197 2 205 0 13 35 15 252
15 l253 0 1 50 c0 28 -1 55 -3 61 -4 11 -662 15 -664 4z"/>
<path d="M16870 7152 l0 -613 60 2 c33 1 62 0 66 -3 3 -3 13 -4 22 -1 9 2 136
5 282 6 l264 2 1 53 c0 29 -4 56 -10 60 -5 3 -120 7 -255 8 -135 1 -250 2
-255 3 -7 1 -11 75 -10 219 l0 217 185 5 185 5 0 58 c1 31 -2 57 -5 58 -3 0
-85 1 -182 2 -98 0 -179 3 -179 6 -1 3 -2 95 -3 203 -1 169 1 197 14 200 8 2
121 3 252 2 l236 -1 4 41 c7 91 41 82 -337 82 l-335 0 0 -614z"/>
<path d="M3320 6480 c0 -5 5 -10 10 -10 6 0 10 5 10 10 0 6 -4 10 -10 10 -5 0
-10 -4 -10 -10z"/>
</g>
</svg>
